# xmcd
#
# Track frame offsets: 
#        150
#        11636
#        25626
#        41539
#        51973
#        66590
#        80887
#        96375
#        109596
#        122500
#
# Disc length: 1792 seconds
#
# Revision: 0
# Processed by: cddbd v1.5.2PL0 Copyright (c) Steve Scherf et al.
# Submitted via: ExactAudioCopy v0.99pb5
#
DISCID=8306fe0a
DTITLE=Lance Beavers - Words to Live By
DYEAR=2009
DGENRE=Country
TTITLE0=Love My Way to Heaven
TTITLE1=My Destiny
TTITLE2=Tommy and Sarah
TTITLE3=Words to Live By
TTITLE4=Good Farmer
TTITLE5=It Ain't Right
TTITLE6=When You Cross the Water
TTITLE7=Think Again
TTITLE8=I Deserve H
TTITLE9=The White Horse
EXTD=
EXTT0=
EXTT1=
EXTT2=
EXTT3=
EXTT4=
EXTT5=
EXTT6=
EXTT7=
EXTT8=
EXTT9=
PLAYORDER=
